HIERARCHY
ROOT hip
{
  OFFSET 0 90.174 2.4664
  CHANNELS 6 Xposition Yposition Zposition Zrotation Xrotation Yrotation
  JOINT abdomen
  {
    OFFSET 0 -1.186 -1.5018
    CHANNELS 6 Xposition Yposition Zposition Zrotation Xrotation Yrotation
    JOINT abdomen2
    {
      OFFSET 0 9.964 0.2134
      CHANNELS 6 Xposition Yposition Zposition Zrotation Xrotation Yrotation
      JOINT chest
      {
        OFFSET 0 13.134 -3.2573
        CHANNELS 6 Xposition Yposition Zposition Zrotation Xrotation Yrotation
        JOINT neck
        {
          OFFSET 0 20.686 -1.6905
          CHANNELS 6 Xposition Yposition Zposition Zrotation Xrotation Yrotation
          JOINT head
          {
            OFFSET 0 7.238 -0.1237
            CHANNELS 6 Xposition Yposition Zposition Zrotation Xrotation Yrotation
            End Site
            {
              OFFSET 0 0 0
            }
          }
        }
        JOINT lCollar
        {
          OFFSET 1.7069 20.075 5.0056
          CHANNELS 6 Xposition Yposition Zposition Zrotation Xrotation Yrotation
          JOINT lShldr
          {
            OFFSET 13.6458 -0.047 -4.849
            CHANNELS 6 Xposition Yposition Zposition Zrotation Xrotation Yrotation
            JOINT lForeArm
            {
              OFFSET 28.3255 -0.9759 2.2888
              CHANNELS 6 Xposition Yposition Zposition Zrotation Xrotation Yrotation
              JOINT lHand
              {
                OFFSET 22.1583 -0.53 10.8316
                CHANNELS 6 Xposition Yposition Zposition Zrotation Xrotation Yrotation
                JOINT lThumb1
                {
                  OFFSET 0.786 0.112 2.5817
                  CHANNELS 6 Xposition Yposition Zposition Zrotation Xrotation Yrotation
                  JOINT lThumb2
                  {
                    OFFSET 0.3601 -0.878 4.2331
                    CHANNELS 6 Xposition Yposition Zposition Zrotation Xrotation Yrotation
                    JOINT lThumb2_End
                    {
                      OFFSET 1.8127 -1.216 2.2227
                      CHANNELS 6 Xposition Yposition Zposition Zrotation Xrotation Yrotation
                      End Site
                      {
                        OFFSET 0.0181 -0.0122 0.0222
                      }
                    }
                  }
                }
                JOINT lCarpal1
                {
                  OFFSET 0.9571 1.114 1.7695
                  CHANNELS 6 Xposition Yposition Zposition Zrotation Xrotation Yrotation
                  JOINT lIndex1
                  {
                    OFFSET 4.1246 0.487 4.1451
                    CHANNELS 6 Xposition Yposition Zposition Zrotation Xrotation Yrotation
                    JOINT lIndex2
                    {
                      OFFSET 3.4052 -1.454 2.7682
                      CHANNELS 6 Xposition Yposition Zposition Zrotation Xrotation Yrotation
                      JOINT lIndex2_End
                      {
                        OFFSET 1.4531 -1.795 1.2713
                        CHANNELS 6 Xposition Yposition Zposition Zrotation Xrotation Yrotation
                        End Site
                        {
                          OFFSET 0.0145 -0.0179 0.0127
                        }
                      }
                    }
                  }
                  JOINT lMid1
                  {
                    OFFSET 5.6954 0.21 2.1184
                    CHANNELS 6 Xposition Yposition Zposition Zrotation Xrotation Yrotation
                    JOINT lMid2
                    {
                      OFFSET 3.9766 -1.54 2.3863
                      CHANNELS 6 Xposition Yposition Zposition Zrotation Xrotation Yrotation
                      JOINT lMid2_End
                      {
                        OFFSET 1.4042 -1.926 1.125
                        CHANNELS 6 Xposition Yposition Zposition Zrotation Xrotation Yrotation
                        End Site
                        {
                          OFFSET 0.014 -0.0193 0.0113
                        }
                      }
                    }
                  }
                }
                JOINT lCarpal2
                {
                  OFFSET 2.0956 0.66 -0.3894
                  CHANNELS 6 Xposition Yposition Zposition Zrotation Xrotation Yrotation
                  JOINT lRing1
                  {
                    OFFSET 5.0395 -0.09 2.4971
                    CHANNELS 6 Xposition Yposition Zposition Zrotation Xrotation Yrotation
                    JOINT lRing2
                    {
                      OFFSET 3.7921 -1.552 1.4806
                      CHANNELS 6 Xposition Yposition Zposition Zrotation Xrotation Yrotation
                      JOINT lRing2_End
                      {
                        OFFSET 1.4655 -1.808 0.9609
                        CHANNELS 6 Xposition Yposition Zposition Zrotation Xrotation Yrotation
                        End Site
                        {
                          OFFSET 0.0147 -0.0181 0.0096
                        }
                      }
                    }
                  }
                  JOINT lPinky1
                  {
                    OFFSET 4.9141 -1.269 0.3591
                    CHANNELS 6 Xposition Yposition Zposition Zrotation Xrotation Yrotation
                    JOINT lPinky2
                    {
                      OFFSET 3.1477 -1.685 0.8462
                      CHANNELS 6 Xposition Yposition Zposition Zrotation Xrotation Yrotation
                      JOINT lPinky2_End
                      {
                        OFFSET 0.8055 -1.585 0.7955
                        CHANNELS 6 Xposition Yposition Zposition Zrotation Xrotation Yrotation
                        End Site
                        {
                          OFFSET 0.0081 -0.0158 0.008
                        }
                      }
                    }
                  }
                }
              }
            }
          }
        }
        JOINT rCollar
        {
          OFFSET -1.7069 20.075 5.0056
          CHANNELS 6 Xposition Yposition Zposition Zrotation Xrotation Yrotation
          JOINT rShldr
          {
            OFFSET -13.6458 -0.047 -4.849
            CHANNELS 6 Xposition Yposition Zposition Zrotation Xrotation Yrotation
            JOINT rForeArm
            {
              OFFSET -28.3255 -0.9759 2.2888
              CHANNELS 6 Xposition Yposition Zposition Zrotation Xrotation Yrotation
              JOINT rHand
              {
                OFFSET -22.1583 -0.53 10.8316
                CHANNELS 6 Xposition Yposition Zposition Zrotation Xrotation Yrotation
                JOINT rThumb1
                {
                  OFFSET -0.786 0.112 2.5817
                  CHANNELS 6 Xposition Yposition Zposition Zrotation Xrotation Yrotation
                  JOINT rThumb2
                  {
                    OFFSET -0.3601 -0.878 4.2331
                    CHANNELS 6 Xposition Yposition Zposition Zrotation Xrotation Yrotation
                    JOINT rThumb2_End
                    {
                      OFFSET -1.8127 -1.216 2.2227
                      CHANNELS 6 Xposition Yposition Zposition Zrotation Xrotation Yrotation
                      End Site
                      {
                        OFFSET -0.0181 -0.0122 0.0222
                      }
                    }
                  }
                }
                JOINT rCarpal1
                {
                  OFFSET -0.9571 1.114 1.7695
                  CHANNELS 6 Xposition Yposition Zposition Zrotation Xrotation Yrotation
                  JOINT rIndex1
                  {
                    OFFSET -4.1246 0.487 4.1451
                    CHANNELS 6 Xposition Yposition Zposition Zrotation Xrotation Yrotation
                    JOINT rIndex2
                    {
                      OFFSET -3.4052 -1.454 2.7682
                      CHANNELS 6 Xposition Yposition Zposition Zrotation Xrotation Yrotation
                      JOINT rIndex2_End
                      {
                        OFFSET -1.4531 -1.795 1.2713
                        CHANNELS 6 Xposition Yposition Zposition Zrotation Xrotation Yrotation
                        End Site
                        {
                          OFFSET -0.0145 -0.018 0.0127
                        }
                      }
                    }
                  }
                  JOINT rMid1
                  {
                    OFFSET -5.6954 0.21 2.1184
                    CHANNELS 6 Xposition Yposition Zposition Zrotation Xrotation Yrotation
                    JOINT rMid2
                    {
                      OFFSET -3.9766 -1.54 2.3863
                      CHANNELS 6 Xposition Yposition Zposition Zrotation Xrotation Yrotation
                      JOINT rMid2_End
                      {
                        OFFSET -1.4042 -1.926 1.125
                        CHANNELS 6 Xposition Yposition Zposition Zrotation Xrotation Yrotation
                        End Site
                        {
                          OFFSET -0.014 -0.0193 0.0113
                        }
                      }
                    }
                  }
                }
                JOINT rCarpal2
                {
                  OFFSET -2.0956 0.66 -0.3894
                  CHANNELS 6 Xposition Yposition Zposition Zrotation Xrotation Yrotation
                  JOINT rRing1
                  {
                    OFFSET -5.0395 -0.09 2.4971
                    CHANNELS 6 Xposition Yposition Zposition Zrotation Xrotation Yrotation
                    JOINT rRing2
                    {
                      OFFSET -3.7921 -1.552 1.4806
                      CHANNELS 6 Xposition Yposition Zposition Zrotation Xrotation Yrotation
                      JOINT rRing2_End
                      {
                        OFFSET -1.4655 -1.808 0.9609
                        CHANNELS 6 Xposition Yposition Zposition Zrotation Xrotation Yrotation
                        End Site
                        {
                          OFFSET -0.0147 -0.0181 0.0096
                        }
                      }
                    }
                  }
                  JOINT rPinky1
                  {
                    OFFSET -4.9141 -1.269 0.3592
                    CHANNELS 6 Xposition Yposition Zposition Zrotation Xrotation Yrotation
                    JOINT rPinky2
                    {
                      OFFSET -3.1477 -1.685 0.8462
                      CHANNELS 6 Xposition Yposition Zposition Zrotation Xrotation Yrotation
                      JOINT rPinky2_End
                      {
                        OFFSET -0.8055 -1.585 0.7955
                        CHANNELS 6 Xposition Yposition Zposition Zrotation Xrotation Yrotation
                        End Site
                        {
                          OFFSET -0.0081 -0.0158 0.008
                        }
                      }
                    }
                  }
                }
              }
            }
          }
        }
      }
    }
  }
  JOINT lThigh
  {
    OFFSET 8.367 -8.2066 0.5982
    CHANNELS 6 Xposition Yposition Zposition Zrotation Xrotation Yrotation
    JOINT lShin
    {
      OFFSET 2.1923 -43.463 -0.4932
      CHANNELS 6 Xposition Yposition Zposition Zrotation Xrotation Yrotation
      JOINT lFoot
      {
        OFFSET 0.7333 -45.8593 -2.6451
        CHANNELS 6 Xposition Yposition Zposition Zrotation Xrotation Yrotation
        End Site
        {
          OFFSET 2.6618 -4.2699 12.3931
        }
      }
    }
  }
  JOINT rThigh
  {
    OFFSET -8.367 -8.2066 0.5982
    CHANNELS 6 Xposition Yposition Zposition Zrotation Xrotation Yrotation
    JOINT rShin
    {
      OFFSET -2.1923 -43.463 -0.4931
      CHANNELS 6 Xposition Yposition Zposition Zrotation Xrotation Yrotation
      JOINT rFoot
      {
        OFFSET -0.7333 -45.8593 -2.6451
        CHANNELS 6 Xposition Yposition Zposition Zrotation Xrotation Yrotation
        End Site
        {
          OFFSET -2.6618 -4.2699 12.3931
        }
      }
    }
  }
}
MOTION
Frames:	4
Frame Time:	0.0333333
0 90.174 2.4664 0 0 -0 0 -1.186 -1.5018 0 0 -0 0 9.964 0.2134 0 0 -0 0 13.134 -3.2573 0 0 -0 0 20.686 -1.6905 0 0 -0 0 7.238 -0.1237 0 0 -0 1.7069 20.075 5.0056 0 0 -0 13.6458 -0.047 -4.849 1.66051 0.0835086 5.75766 28.3255 -0.9759 2.2888 -0.0175111 0.895433 15.7816 22.1583 -0.53 10.8316 7.95139e-016 -1.98785e-016 -0 0.786 0.112 2.5817 5.46658e-016 -3.97569e-016 -0 0.3601 -0.878 4.2331 5.96354e-016 0 -0 1.8127 -1.216 2.2227 3.97569e-016 1.98785e-016 9.54166e-015 0.9571 1.114 1.7695 1.49089e-016 -3.97569e-016 -0 4.1246 0.487 4.1451 6.4605e-016 0 3.18055e-015 3.4052 -1.454 2.7682 5.96354e-016 0 3.18055e-015 1.4531 -1.795 1.2713 8.94531e-016 -1.98785e-016 6.36111e-015 5.6954 0.21 2.1184 6.4605e-016 0 3.18055e-015 3.9766 -1.54 2.3863 5.96354e-016 0 3.18055e-015 1.4042 -1.926 1.125 8.94531e-016 -1.98785e-016 6.36111e-015 2.0956 0.66 -0.3894 1.49089e-016 -3.97569e-016 -0 5.0395 -0.09 2.4971 6.4605e-016 0 3.18055e-015 3.7921 -1.552 1.4806 5.96354e-016 0 3.18055e-015 1.4655 -1.808 0.9609 8.94531e-016 -1.98785e-016 6.36111e-015 4.9141 -1.269 0.3591 6.4605e-016 0 3.18055e-015 3.1477 -1.685 0.8462 5.96354e-016 0 3.18055e-015 0.8055 -1.585 0.7955 8.94531e-016 -1.98785e-016 6.36111e-015 -1.7069 20.075 5.0056 0 0 -0 -13.6458 -0.047 -4.849 -1.4496 0.0636048 -5.0245 -28.3255 -0.9759 2.2888 -1.74811 1.20616 -16.8394 -22.1583 -0.53 10.8316 -1.19271e-015 1.98785e-016 -3.18055e-015 -0.786 0.112 2.5817 -3.97569e-016 1.98785e-016 -3.18055e-015 -0.3601 -0.878 4.2331 -2.98177e-016 1.98785e-016 -3.18055e-015 -1.8127 -1.216 2.2227 -2.98177e-016 3.97569e-016 -0 -0.9571 1.114 1.7695 4.96962e-016 0 -6.36111e-015 -4.1246 0.487 4.1451 -9.93923e-017 3.97569e-016 -0 -3.4052 -1.454 2.7682 -8.94531e-016 5.96354e-016 -0 -1.4531 -1.795 1.2713 -3.97569e-016 3.97569e-016 -0 -5.6954 0.21 2.1184 -9.93923e-017 3.97569e-016 -0 -3.9766 -1.54 2.3863 -8.94531e-016 5.96354e-016 -0 -1.4042 -1.926 1.125 -3.97569e-016 3.97569e-016 -0 -2.0956 0.66 -0.3894 4.96962e-016 0 -6.36111e-015 -5.0395 -0.09 2.4971 -9.93923e-017 3.97569e-016 -0 -3.7921 -1.552 1.4806 -8.94531e-016 5.96354e-016 -0 -1.4655 -1.808 0.9609 -3.97569e-016 3.97569e-016 -0 -4.9141 -1.269 0.3592 -9.93923e-017 3.97569e-016 -0 -3.1477 -1.685 0.8462 -8.94531e-016 5.96354e-016 -0 -0.8055 -1.585 0.7955 -3.97569e-016 3.97569e-016 -0 8.367 -8.2066 0.5982 -4.66115 -1.03232 0.120763 2.1923 -43.463 -0.4932 0.00990601 1.55097 0.177175 0.7333 -45.8593 -2.6451 4.65196 -0.54114 -0.255042 -8.367 -8.2066 0.5982 4.66115 -1.03222 -0.120763 -2.1923 -43.463 -0.4931 -0.00990459 1.5509 -0.177176 -0.7333 -45.8593 -2.6451 -4.65196 -0.541171 0.255041 
0.529973 0.226869 54.4919 -99.585 -89.9887 -99.5739 1.11022e-016 -1.186 -1.5018 0.295215 4.03083 -0.142108 0 9.964 0.2134 0.602727 8.06084 -0.306236 -1.11022e-016 13.134 -3.2573 0.602727 8.06084 -0.306236 0 20.686 -1.6905 -9.92153e-008 -14.0111 -1.54093e-007 0 7.238 -0.1237 2.96918e-007 -17.0041 9.15214e-008 1.7069 20.075 5.0056 17.3817 -37.6076 -3.75438 13.6458 -0.047 -4.849 -101.177 -39.9636 -56.1771 28.3255 -0.9759 2.2888 -7.76374 5.32739 -105.66 22.1583 -0.53 10.8316 -28.8346 -9.16367 -10.8321 0.786 0.112 2.5817 -3.18055e-015 -1.19271e-015 -0 0.3601 -0.878 4.2331 -3.18055e-015 0 -7.95139e-016 1.8127 -1.216 2.2227 -8.27607e-033 -1.19271e-015 -3.97569e-016 0.9571 1.114 1.7695 -3.18055e-015 -1.59028e-015 -0 4.1246 0.487 4.1451 -6.36111e-015 -1.43125e-014 -1.59028e-015 3.4052 -1.454 2.7682 -3.18055e-015 -7.95139e-016 -0 1.4531 -1.795 1.2713 1.65521e-032 7.95139e-016 -1.19271e-015 5.6954 0.21 2.1184 -6.36111e-015 -1.43125e-014 -1.59028e-015 3.9766 -1.54 2.3863 -3.18055e-015 -7.95139e-016 -0 1.4042 -1.926 1.125 1.65521e-032 7.95139e-016 -1.19271e-015 2.0956 0.66 -0.3894 -3.18055e-015 -1.59028e-015 -0 5.0395 -0.09 2.4971 -6.36111e-015 -1.43125e-014 -1.59028e-015 3.7921 -1.552 1.4806 -3.18055e-015 -7.95139e-016 -0 1.4655 -1.808 0.9609 1.65521e-032 7.95139e-016 -1.19271e-015 4.9141 -1.269 0.3591 -6.36111e-015 -1.43125e-014 -1.59028e-015 3.1477 -1.685 0.8462 -3.18055e-015 -7.95139e-016 -0 0.8055 -1.585 0.7955 1.65521e-032 7.95139e-016 -1.19271e-015 -1.7069 20.075 5.0056 -17.4143 -37.611 3.73544 -13.6458 -0.047 -4.849 90.6053 -42.0377 54.377 -28.3255 -0.9759 2.2888 8.88409 1.86733 89.6187 -22.1583 -0.53 10.8316 37.6868 -1.90959 16.5047 -0.786 0.112 2.5817 -3.18055e-015 7.95139e-016 -1.98785e-015 -0.3601 -0.878 4.2331 -3.18055e-015 1.98785e-016 -1.19271e-015 -1.8127 -1.216 2.2227 6.36111e-015 1.98785e-015 -2.78299e-015 -0.9571 1.114 1.7695 -3.18055e-015 7.95139e-016 -3.97569e-016 -4.1246 0.487 4.1451 -3.18055e-015 -7.95139e-016 -7.95139e-016 -3.4052 -1.454 2.7682 6.36111e-015 9.93923e-016 -2.38542e-015 -1.4531 -1.795 1.2713 5.51738e-032 1.59028e-015 -1.98785e-015 -5.6954 0.21 2.1184 -3.18055e-015 -7.95139e-016 -7.95139e-016 -3.9766 -1.54 2.3863 6.36111e-015 9.93923e-016 -2.38542e-015 -1.4042 -1.926 1.125 5.51738e-032 1.59028e-015 -1.98785e-015 -2.0956 0.66 -0.3894 -3.18055e-015 7.95139e-016 -3.97569e-016 -5.0395 -0.09 2.4971 -3.18055e-015 -7.95139e-016 -7.95139e-016 -3.7921 -1.552 1.4806 6.36111e-015 9.93923e-016 -2.38542e-015 -1.4655 -1.808 0.9609 5.51738e-032 1.59028e-015 -1.98785e-015 -4.9141 -1.269 0.3592 -3.18055e-015 -7.95139e-016 -7.95139e-016 -3.1477 -1.685 0.8462 6.36111e-015 9.93923e-016 -2.38542e-015 -0.8055 -1.585 0.7955 5.51738e-032 1.59028e-015 -1.98785e-015 8.367 -8.2066 0.5982 11.8394 -36.6384 12.2884 2.1923 -43.463 -0.4932 30.1952 81.7791 -26.4699 0.7333 -45.8593 -2.6451 1.55862 40.8216 5.33081 -8.367 -8.2066 0.5982 -11.8448 -36.6385 -12.2939 -2.1923 -43.463 -0.4931 -30.1943 81.7783 26.4639 -0.7333 -45.8593 -2.6451 -1.56203 40.8225 -5.33327 
0.529974 0.22687 54.3478 -99.585 -89.9887 -99.5739 0 -1.186 -1.5018 0.295417 3.89836 -0.142774 0 9.964 0.2134 0.602696 7.79593 -0.306816 -5.55112e-017 13.134 -3.2573 0.602696 7.79592 -0.306816 0 20.686 -1.6905 -3.68646e-007 -13.2902 1.27975e-007 0 7.238 -0.1237 -1.48433e-007 -16.2831 -6.84295e-008 1.7069 20.075 5.0056 16.9864 -36.8238 -4.16409 13.6458 -0.047 -4.849 -100.678 -40.0523 -56.0905 28.3255 -0.9759 2.2888 -7.723 5.37443 -106.103 22.1583 -0.53 10.8316 -27.8773 -9.02189 -9.05399 0.786 0.112 2.5817 -4.12222e-006 7.05041e-008 -1.86354e-007 0.3601 -0.878 4.2331 -4.13804e-033 1.98785e-016 1.19271e-015 1.8127 -1.216 2.2227 -8.95109e-007 -4.43211e-007 4.53454e-008 0.9571 1.114 1.7695 3.18055e-015 -1.98785e-016 7.95139e-016 4.1246 0.487 4.1451 -4.12222e-006 7.05041e-008 -1.86354e-007 3.4052 -1.454 2.7682 -3.18055e-015 -7.95139e-016 3.97569e-016 1.4531 -1.795 1.2713 -8.95109e-007 -4.43211e-007 4.53454e-008 5.6954 0.21 2.1184 -4.12222e-006 7.05041e-008 -1.86354e-007 3.9766 -1.54 2.3863 -3.18055e-015 -7.95139e-016 3.97569e-016 1.4042 -1.926 1.125 -8.95109e-007 -4.43211e-007 4.53454e-008 2.0956 0.66 -0.3894 3.18055e-015 -1.98785e-016 7.95139e-016 5.0395 -0.09 2.4971 -4.12222e-006 7.05041e-008 -1.86354e-007 3.7921 -1.552 1.4806 -3.18055e-015 -7.95139e-016 3.97569e-016 1.4655 -1.808 0.9609 -8.95109e-007 -4.43211e-007 4.53454e-008 4.9141 -1.269 0.3591 -4.12222e-006 7.05041e-008 -1.86354e-007 3.1477 -1.685 0.8462 -3.18055e-015 -7.95139e-016 3.97569e-016 0.8055 -1.585 0.7955 -8.95109e-007 -4.43211e-007 4.53454e-008 -1.7069 20.075 5.0056 -17.0197 -36.8262 4.13539 -13.6458 -0.047 -4.849 90.7963 -41.8745 54.5798 -28.3255 -0.9759 2.2888 8.87348 1.91052 89.9493 -22.1583 -0.53 10.8316 36.8479 -2.07967 14.8172 -0.786 0.112 2.5817 3.18055e-015 -3.97569e-016 2.78299e-015 -0.3601 -0.878 4.2331 -6.36476e-006 3.65761e-007 -2.27075e-006 -1.8127 -1.216 2.2227 1.37935e-031 3.97569e-015 -1.98785e-015 -0.9571 1.114 1.7695 3.18055e-015 -2.78299e-015 2.78299e-015 -4.1246 0.487 4.1451 -3.18055e-015 2.78299e-015 2.78299e-015 -3.4052 -1.454 2.7682 -6.36476e-006 3.65761e-007 -2.27075e-006 -1.4531 -1.795 1.2713 -6.36111e-015 3.97569e-015 -1.98785e-015 -5.6954 0.21 2.1184 -3.18055e-015 2.78299e-015 2.78299e-015 -3.9766 -1.54 2.3863 -6.36476e-006 3.65761e-007 -2.27075e-006 -1.4042 -1.926 1.125 -6.36111e-015 3.97569e-015 -1.98785e-015 -2.0956 0.66 -0.3894 3.18055e-015 -2.78299e-015 2.78299e-015 -5.0395 -0.09 2.4971 -3.18055e-015 2.78299e-015 2.78299e-015 -3.7921 -1.552 1.4806 -6.36476e-006 3.65761e-007 -2.27075e-006 -1.4655 -1.808 0.9609 -6.36111e-015 3.97569e-015 -1.98785e-015 -4.9141 -1.269 0.3592 -3.18055e-015 2.78299e-015 2.78299e-015 -3.1477 -1.685 0.8462 -6.36476e-006 3.65761e-007 -2.27075e-006 -0.8055 -1.585 0.7955 -6.36111e-015 3.97569e-015 -1.98785e-015 8.367 -8.2066 0.5982 11.8394 -36.6384 12.2884 2.1923 -43.463 -0.4932 30.1952 81.7791 -26.47 0.7333 -45.8593 -2.6451 1.55863 40.8216 5.33079 -8.367 -8.2066 0.5982 -11.8448 -36.6385 -12.2939 -2.1923 -43.463 -0.4931 -30.1944 81.7783 26.464 -0.7333 -45.8593 -2.6451 -1.56202 40.8225 -5.33328 
0.529972 0.226869 54.2037 -99.6232 -89.9887 -99.6121 1.11022e-016 -1.186 -1.5018 0.295589 3.76563 -0.143432 -1.11022e-016 9.964 0.2134 0.602605 7.53037 -0.307378 1.66533e-016 13.134 -3.2573 0.602606 7.53033 -0.307378 -5.55112e-017 20.686 -1.6905 -2.00307e-005 -12.5683 -2.86013e-006 -5.55112e-017 7.238 -0.1237 -6.0407e-007 -15.5617 -2.90766e-007 1.7069 20.075 5.0056 16.6017 -36.037 -4.56335 13.6458 -0.047 -4.849 -100.178 -40.1405 -56.0028 28.3255 -0.9759 2.2888 -7.68193 5.42118 -106.547 22.1583 -0.53 10.8316 -26.9209 -8.85005 -7.27143 0.786 0.112 2.5817 1.01809e-006 7.07218e-007 2.05026e-006 0.3601 -0.878 4.2331 -6.36111e-015 -4.96962e-016 -1.98785e-016 1.8127 -1.216 2.2227 -1.01809e-006 -7.07218e-007 -2.05026e-006 0.9571 1.114 1.7695 6.36111e-015 1.98785e-016 1.98785e-016 4.1246 0.487 4.1451 1.01809e-006 7.07218e-007 2.05026e-006 3.4052 -1.454 2.7682 -6.36111e-015 -3.97569e-016 1.98785e-016 1.4531 -1.795 1.2713 -1.01809e-006 -7.07218e-007 -2.05026e-006 5.6954 0.21 2.1184 1.01809e-006 7.07218e-007 2.05026e-006 3.9766 -1.54 2.3863 -6.36111e-015 -3.97569e-016 1.98785e-016 1.4042 -1.926 1.125 -1.01809e-006 -7.07218e-007 -2.05026e-006 2.0956 0.66 -0.3894 6.36111e-015 1.98785e-016 1.98785e-016 5.0395 -0.09 2.4971 1.01809e-006 7.07218e-007 2.05026e-006 3.7921 -1.552 1.4806 -6.36111e-015 -3.97569e-016 1.98785e-016 1.4655 -1.808 0.9609 -1.01809e-006 -7.07218e-007 -2.05026e-006 4.9141 -1.269 0.3591 1.01809e-006 7.07218e-007 2.05026e-006 3.1477 -1.685 0.8462 -6.36111e-015 -3.97569e-016 1.98785e-016 0.8055 -1.585 0.7955 -1.01809e-006 -7.07218e-007 -2.05026e-006 -1.7069 20.075 5.0056 -16.6355 -36.0384 4.52499 -13.6458 -0.047 -4.849 90.9859 -41.7109 54.7814 -28.3255 -0.9759 2.2888 8.8626 1.95367 90.2801 -22.1583 -0.53 10.8316 36.0006 -2.22551 13.1199 -0.786 0.112 2.5817 6.36111e-015 1.59028e-015 7.95139e-016 -0.3601 -0.878 4.2331 3.18055e-015 1.98785e-015 7.95139e-016 -1.8127 -1.216 2.2227 3.18055e-015 2.78299e-015 -0 -0.9571 1.114 1.7695 6.36111e-015 1.59028e-015 7.95139e-016 -4.1246 0.487 4.1451 3.18055e-015 1.98785e-015 7.95139e-016 -3.4052 -1.454 2.7682 3.18055e-015 2.78299e-015 -0 -1.4531 -1.795 1.2713 0 2.38542e-015 -0 -5.6954 0.21 2.1184 3.18055e-015 1.98785e-015 7.95139e-016 -3.9766 -1.54 2.3863 3.18055e-015 2.78299e-015 -0 -1.4042 -1.926 1.125 0 2.38542e-015 -0 -2.0956 0.66 -0.3894 6.36111e-015 1.59028e-015 7.95139e-016 -5.0395 -0.09 2.4971 3.18055e-015 1.98785e-015 7.95139e-016 -3.7921 -1.552 1.4806 3.18055e-015 2.78299e-015 -0 -1.4655 -1.808 0.9609 0 2.38542e-015 -0 -4.9141 -1.269 0.3592 3.18055e-015 1.98785e-015 7.95139e-016 -3.1477 -1.685 0.8462 3.18055e-015 2.78299e-015 -0 -0.8055 -1.585 0.7955 0 2.38542e-015 -0 8.367 -8.2066 0.5982 11.8394 -36.6384 12.2884 2.1923 -43.463 -0.4932 30.1949 81.7791 -26.4697 0.7333 -45.8593 -2.6451 1.55862 40.8215 5.33081 -8.367 -8.2066 0.5982 -11.8448 -36.6385 -12.2939 -2.1923 -43.463 -0.4931 -30.1943 81.7783 26.4639 -0.7333 -45.8593 -2.6451 -1.56204 40.8225 -5.33328 
